<svg width="203" height="167" viewBox="0 0 203 167" fill="none" xmlns="http://www.w3.org/2000/svg">
<path d="M54 164.104C54 161.951 67 160.604 75.5 159.505C118.5 157.604 183 159.505 183 159.505C199.077 159.903 217.788 165.788 182 166.505H70.5C70.5 166.505 54 166.258 54 164.104Z" fill="#D1D1D1"/>
<path d="M71.1581 166L60.5 86H141.5L130.842 166H71.1581Z" fill="#979797" stroke="#979797" stroke-linejoin="round"/>
<rect x="60.5" y="76" width="81" height="10" fill="#979797" stroke="#979797" stroke-linejoin="round"/>
<rect x="150.66" y="83.8" width="89" height="10" transform="rotate(60 150.66 83.8)" fill="#6B6B6B" stroke="#6B6B6B" stroke-linejoin="round"/>
<rect x="170.392" y="108.178" width="26.3683" height="5" transform="rotate(60 170.392 108.178)" stroke="#6B6B6B"/>
<line x1="115.983" y1="149.845" x2="122.931" y2="100.41" stroke="#D1D1D1" stroke-linecap="round" stroke-linejoin="round"/>
<line x1="79.0647" y1="100.41" x2="86.0123" y2="149.845" stroke="#D1D1D1" stroke-linecap="round" stroke-linejoin="round"/>
<path d="M101 100.5L101 150" stroke="#D1D1D1" stroke-linecap="round" stroke-linejoin="round"/>
<path d="M119.732 8.99995C116.159 15.9789 111.583 24.772 108.194 31.9014C105.849 36.8364 103.494 41.9513 102.378 46.9012C101.557 50.5395 101.283 54.3349 101.958 57.45C102.655 60.6598 106.059 62.7875 109.195 63.273C112.95 63.854 117.794 63.7 121.898 59.9834C125.416 56.7977 127.91 53.223 127.821 49.2269C127.724 44.9481 125.256 41.7955 122.65 39.4191C118.086 35.2567 111.828 32.7873 104.462 33.1889C95.492 33.6779 89.0035 43.1744 85.5916 51.6667C81.2008 62.5954 83.3883 69.3011 90.4369 73.5683" stroke="#6B6B6B" stroke-opacity="0.5" stroke-linecap="round" stroke-linejoin="round" stroke-dasharray="5 5"/>
<path d="M121.245 4.74255L121.517 4.10903C121.517 4.10903 118.621 0.126867 117.354 2.29895C116.087 4.47104 121.245 4.74255 121.245 4.74255Z" stroke="#6B6B6B" stroke-linejoin="round"/>
<path d="M123.339 5.46657L123.068 5.91909C123.068 5.91909 126.235 9.99175 127.412 7.72916C128.588 5.46657 123.339 5.46657 123.339 5.46657Z" stroke="#6B6B6B" stroke-linejoin="round"/>
<path d="M123.555 5.7593C123.068 6.45393 121.655 7.30181 120.96 6.81497C120.266 6.32812 120.552 4.6909 121.039 3.99627C121.526 3.30164 122.484 3.13319 123.178 3.62004C123.873 4.10689 124.041 5.06467 123.555 5.7593Z" fill="#6B6B6B"/>
</svg>
