<svg width="203" height="167" viewBox="0 0 203 167" fill="none" xmlns="http://www.w3.org/2000/svg">
<path d="M54.5 164.104C54.5 161.951 67.5 160.604 76 159.505C119 157.604 183.5 159.505 183.5 159.505C199.577 159.903 218.288 165.788 182.5 166.505H71C71 166.505 54.5 166.258 54.5 164.104Z" fill="#6B6B6B"/>
<path d="M71.6581 166L61 86H142L131.342 166H71.6581Z" fill="#979797" stroke="#979797" stroke-linejoin="round"/>
<rect x="61" y="76" width="81" height="10" fill="#979797" stroke="#979797" stroke-linejoin="round"/>
<rect x="151.16" y="83.8" width="89" height="10" transform="rotate(60 151.16 83.8)" fill="#D1D1D1" stroke="#D1D1D1" stroke-linejoin="round"/>
<rect x="170.892" y="108.178" width="26.3683" height="5" transform="rotate(60 170.892 108.178)" stroke="#D1D1D1"/>
<line x1="116.483" y1="149.845" x2="123.431" y2="100.41" stroke="#6B6B6B" stroke-linecap="round" stroke-linejoin="round"/>
<line x1="79.5647" y1="100.41" x2="86.5123" y2="149.845" stroke="#6B6B6B" stroke-linecap="round" stroke-linejoin="round"/>
<path d="M101.5 100.5L101.5 150" stroke="#6B6B6B" stroke-linecap="round" stroke-linejoin="round"/>
<path d="M120.232 8.99995C116.659 15.9789 112.083 24.772 108.694 31.9014C106.349 36.8364 103.994 41.9513 102.878 46.9012C102.057 50.5395 101.783 54.3349 102.458 57.45C103.155 60.6598 106.559 62.7875 109.695 63.273C113.45 63.854 118.294 63.7 122.398 59.9834C125.916 56.7977 128.41 53.223 128.321 49.2269C128.224 44.9481 125.756 41.7955 123.15 39.4191C118.586 35.2567 112.328 32.7873 104.962 33.1889C95.992 33.6779 89.5035 43.1744 86.0916 51.6667C81.7008 62.5954 83.8883 69.3011 90.9369 73.5683" stroke="#D1D1D1" stroke-opacity="0.5" stroke-linecap="round" stroke-linejoin="round" stroke-dasharray="5 5"/>
<path d="M121.745 4.74255L122.017 4.10903C122.017 4.10903 119.121 0.126867 117.854 2.29895C116.587 4.47104 121.745 4.74255 121.745 4.74255Z" stroke="#D1D1D1" stroke-linejoin="round"/>
<path d="M123.839 5.46657L123.568 5.91909C123.568 5.91909 126.735 9.99175 127.912 7.72916C129.088 5.46657 123.839 5.46657 123.839 5.46657Z" stroke="#D1D1D1" stroke-linejoin="round"/>
<path d="M124.055 5.7593C123.568 6.45393 122.155 7.30181 121.46 6.81497C120.766 6.32812 121.052 4.6909 121.539 3.99627C122.026 3.30164 122.984 3.13319 123.678 3.62004C124.373 4.10689 124.541 5.06467 124.055 5.7593Z" fill="#D1D1D1"/>
</svg>
