<svg width="195" height="167" viewBox="0 0 195 167" fill="none" xmlns="http://www.w3.org/2000/svg">
<path d="M0 164.584C3.99509e-05 162.667 56.9462 160.271 56.9462 160.271V166.5C56.9462 166.5 -3.99508e-05 166.5 0 164.584Z" fill="#6B6B6B"/>
<path d="M66.7339 105.55H34.2568L49.3831 86.4193L74.1191 86.639L66.7339 105.55Z" fill="#D1D1D1" stroke="#D1D1D1" stroke-linejoin="round"/>
<path d="M118.155 9.89794C114.181 17.6602 109.091 27.4403 105.322 35.3699C102.713 40.8589 100.095 46.5478 98.853 52.0533C97.9404 56.1 97.635 60.3214 98.3866 63.7861C99.161 67.3562 102.947 69.7228 106.436 70.2627C110.611 70.909 116 70.7377 120.565 66.6039C124.477 63.0607 127.251 59.0847 127.152 54.64C127.045 49.881 124.299 46.3745 121.4 43.7314C116.324 39.1018 109.364 36.3553 101.171 36.8019C91.1943 37.3458 83.9775 47.9082 80.1826 57.3537C75.299 69.5091 77.7321 76.9674 85.5718 81.7136" stroke="#D1D1D1" stroke-opacity="0.5" stroke-linecap="round" stroke-linejoin="round" stroke-dasharray="6 6"/>
<path d="M119.839 5.16263L120.141 4.45799C120.141 4.45799 116.919 0.0288651 115.51 2.44475C114.101 4.86064 119.839 5.16263 119.839 5.16263Z" stroke="#D1D1D1" stroke-linejoin="round"/>
<path d="M122.167 5.96782L121.865 6.47113C121.865 6.47113 125.388 11.0009 126.697 8.48437C128.006 5.96782 122.167 5.96782 122.167 5.96782Z" stroke="#D1D1D1" stroke-linejoin="round"/>
<path d="M122.407 6.29355C121.865 7.06615 120.294 8.0092 119.522 7.4677C118.749 6.92621 119.068 5.10523 119.609 4.33263C120.151 3.56003 121.216 3.37268 121.989 3.91418C122.761 4.45567 122.948 5.52095 122.407 6.29355Z" fill="#D1D1D1"/>
<path d="M146.37 166.5V85.9745H49.3831V165.7C49.3831 166.142 49.7412 166.5 50.1831 166.5H146.37Z" fill="#979797"/>
<path d="M79.1909 104.215C79.1909 102.249 80.7844 100.656 82.7501 100.656H108.554C110.519 100.656 112.113 102.249 112.113 104.215V104.215C112.113 106.181 110.519 107.774 108.554 107.774H82.7501C80.7844 107.774 79.1909 106.181 79.1909 104.215V104.215Z" fill="#202125"/>
<path d="M168.169 162.496L146.37 166.055V86.4193L168.169 89.0887V162.496Z" fill="#202125" stroke="#D1D1D1" stroke-linejoin="round"/>
<path d="M156.157 104.163L176.178 104.66L168.17 89.0887L146.815 86.5868L156.157 104.163Z" fill="#D1D1D1" stroke="#D1D1D1" stroke-linejoin="round"/>
</svg>
