<svg width="87" height="83" viewBox="0 0 87 83" fill="none" xmlns="http://www.w3.org/2000/svg">
<path opacity="0.5" d="M76.4983 12.6944L2.69149 9.89294C-0.386639 40.0043 -0.381091 59.3021 8.87983 83L86.7614 82.3856C78.612 61.267 73.7107 43.3124 76.4983 12.6944Z" fill="#D1D1D1"/>
<path d="M76.4595 12.7034L2.26093 9.89294C-0.833534 40.1019 -2.04074 56.3806 7.26934 80.1553H82.2099C74.0172 58.9682 73.6571 43.4207 76.4595 12.7034Z" fill="#D1D1D1"/>
<path d="M77.0894 12.6773L2.29989 9.89294C1.86383 14.0893 1.47527 18.0144 1.1377 21.7266L75.7835 24.685C76.0408 20.9416 76.6932 16.9582 77.0894 12.6773Z" fill="#979797"/>
<path d="M51.4706 7.40482C51.54 7.33982 51.5988 7.26653 51.646 7.18484C52.223 6.18535 50.8413 4.30727 48.5598 2.99003C46.2782 1.6728 43.9609 1.41521 43.3838 2.4147C43.07 2.95829 43.3356 3.76175 44.0101 4.59354L42.1593 7.38984C42.0468 7.5597 41.9286 7.71976 41.8053 7.86703C40.2129 7.53745 38.8745 7.80531 38.3612 8.69431C37.6468 9.93171 38.7739 11.952 40.917 13.4529L38.6129 16.9339L38.8157 18.037L39.9373 17.752L42.2557 14.2493C44.7119 15.4753 47.1632 15.4834 47.9025 14.203C48.372 13.3898 48.0461 12.2385 47.1594 11.1188C47.2515 10.9729 47.3518 10.8209 47.4568 10.6624L49.4013 7.7246C49.9803 7.82136 50.4926 7.81757 50.8923 7.7081C51.1077 7.68727 51.3189 7.58149 51.4706 7.40482Z" fill="#D1D1D1"/>
<path d="M23.9411 45.8978C23.7854 53.6363 28.8141 57.0001 40.22 62.887C51.0391 57.5001 56.1356 52.1807 57.0472 47.5502" stroke="#979797" stroke-width="3" stroke-linecap="round" stroke-linejoin="round" stroke-dasharray="1 6"/>
<path d="M23.9418 45.8976C24.0325 41.3893 26.8598 38.2663 31.494 38.0397C36.1923 37.8099 39.9903 45.3214 39.9903 45.3214C39.9903 45.3214 45.4961 37.1319 50.6604 38.135C55.5129 39.0774 57.9595 42.9195 57.0479 47.55" stroke="#979797" stroke-width="3" stroke-linecap="round" stroke-linejoin="round" stroke-dasharray="1 6.9"/>
</svg>
