<svg width="157" height="133" viewBox="0 0 157 133" fill="none" xmlns="http://www.w3.org/2000/svg">
<path d="M49.7015 18.0974L110.957 20.2365C111.123 20.2423 111.253 20.3812 111.247 20.5468L107.794 119.426C107.79 119.524 107.739 119.615 107.656 119.668L90.2416 130.835C90.1903 130.868 90.1301 130.884 90.0692 130.882L45.8169 129.337C45.6513 129.331 45.5218 129.192 45.5276 129.027L49.3912 18.3868C49.397 18.2212 49.5359 18.0917 49.7015 18.0974Z" fill="#979797" stroke="#979797" stroke-linejoin="round"/>
<path fill-rule="evenodd" clip-rule="evenodd" d="M108.28 119.894L90.2803 131.394V115.394L108.28 119.894Z" fill="#D1D1D1"/>
<path opacity="0.6" d="M80.3652 0.00366211L93.3486 6.90701L76.7089 38.2016L63.7256 31.2982L80.3652 0.00366211Z" fill="#6B6B6B"/>
<path d="M80.3699 0.00376178L93.3532 6.90711L86.9999 19.0038L70.6199 18.3238L80.3699 0.00376178Z" fill="#6B6B6B"/>
<line x1="55.0709" y1="41.5429" x2="104.353" y2="43.2639" stroke="#6B6B6B" stroke-linecap="round" stroke-linejoin="round"/>
<line x1="54.8492" y1="47.895" x2="104.131" y2="49.6159" stroke="#6B6B6B" stroke-linecap="round" stroke-linejoin="round"/>
<line x1="54.6275" y1="54.2468" x2="103.909" y2="55.9677" stroke="#6B6B6B" stroke-linecap="round" stroke-linejoin="round"/>
<line x1="54.4053" y1="60.5988" x2="103.687" y2="62.3198" stroke="#6B6B6B" stroke-linecap="round" stroke-linejoin="round"/>
<line x1="54.1836" y1="66.9506" x2="103.466" y2="68.6716" stroke="#6B6B6B" stroke-linecap="round" stroke-linejoin="round"/>
<line x1="53.962" y1="73.3027" x2="103.244" y2="75.0236" stroke="#6B6B6B" stroke-linecap="round" stroke-linejoin="round"/>
<line x1="53.7398" y1="79.6547" x2="103.022" y2="81.3757" stroke="#6B6B6B" stroke-linecap="round" stroke-linejoin="round"/>
<line x1="53.5181" y1="86.0065" x2="102.8" y2="87.7275" stroke="#6B6B6B" stroke-linecap="round" stroke-linejoin="round"/>
<line x1="53.2964" y1="92.3586" x2="102.578" y2="94.0795" stroke="#6B6B6B" stroke-linecap="round" stroke-linejoin="round"/>
<line x1="53.0748" y1="98.7106" x2="102.357" y2="100.432" stroke="#6B6B6B" stroke-linecap="round" stroke-linejoin="round"/>
<line x1="52.8526" y1="105.062" x2="102.135" y2="106.783" stroke="#6B6B6B" stroke-linecap="round" stroke-linejoin="round"/>
<line x1="52.6309" y1="111.414" x2="101.913" y2="113.135" stroke="#6B6B6B" stroke-linecap="round" stroke-linejoin="round"/>
<path d="M118.066 74.0285L140.881 33.2788L146.934 36.8315L124.245 77.6207L118.066 74.0285Z" fill="#6B6B6B"/>
<path d="M120.811 76.4414L120.118 76.0304L143.394 35.1571L143.979 35.5973L120.811 76.4414Z" fill="#D1D1D1"/>
<path d="M140.851 33.2868L146.934 36.8315L141.83 46.1444L135.791 42.2522L140.851 33.2868Z" fill="#979797"/>
<path d="M140.859 33.2848L146.934 36.833L144.805 40.624L138.611 37.1077L140.859 33.2848Z" fill="#D1D1D1"/>
<path d="M118.066 74.0285L124.245 77.6208L116.178 84.6103L118.066 74.0285Z" fill="#979797"/>
<path d="M118.831 82.3113L116.178 84.6101L116.788 81.193L118.831 82.3113Z" fill="#D1D1D1"/>
</svg>
