<svg width="109" height="83" viewBox="0 0 109 83" fill="none" xmlns="http://www.w3.org/2000/svg">
<path opacity="0.5" d="M98.5334 12.6944L24.7266 9.89294C21.6485 40.0043 21.6541 59.3021 30.915 83L108.797 82.3856C100.647 61.267 95.7459 43.3124 98.5334 12.6944Z" fill="#6B6B6B"/>
<path d="M98.4946 12.7034L24.2961 9.89294C21.2016 40.1019 19.9944 56.3806 29.3045 80.1553H104.245C96.0523 58.9683 95.6923 43.4207 98.4946 12.7034Z" fill="#6B6B6B"/>
<path d="M85.9912 39.7568C82.3815 40.1711 79.6084 38.0085 77.1646 37.1831C74.7207 36.3577 74.0896 39.8811 71.1841 40.1735C67.1197 40.5825 66.3606 36.1663 62.2165 36.0916C57.9875 36.0154 57.6415 40.3243 53.4191 40.0159C50.3298 39.7902 49.7131 37.2796 46.6221 37.0747C44.2188 36.9155 43.1798 38.1344 40.7824 38.1935C37.0861 38.2846 34.6017 37.714 31.6705 36.1009" stroke="#979797" stroke-width="1.6" stroke-linecap="round" stroke-linejoin="round"/>
<path d="M72.8699 50.4621C68.6717 49.7952 67.5042 53.8533 63.1818 53.6311C58.7707 53.4043 58.7779 49.3684 54.3539 49.3583C51.1171 49.3509 50.2606 51.6449 47.0238 51.618C44.5071 51.5971 43.529 50.3891 41.0371 50.1654C37.1951 49.8203 34.5589 50.1766 31.3683 51.472" stroke="#979797" stroke-width="1.6" stroke-linecap="round" stroke-linejoin="round"/>
<path d="M17.7814 58.4409L21.1142 61.7738L19.4383 64.8482C19.0285 65.6 18.513 66.2891 17.9076 66.8946L7.86271 76.9394C6.41514 78.387 4.06816 78.387 2.62059 76.9394V76.9394C1.17302 75.4918 1.17302 73.1449 2.62059 71.6973L12.6696 61.6483C13.2723 61.0456 13.9579 60.532 14.7058 60.123L17.7814 58.4409Z" fill="#6B6B6B"/>
<path fill-rule="evenodd" clip-rule="evenodd" d="M32.3559 65.9232C21.7576 65.9232 13.1659 57.3315 13.1659 46.7332C13.1659 36.1349 21.7576 27.5432 32.3559 27.5432C42.9543 27.5432 51.5459 36.1349 51.5459 46.7332C51.5459 57.3315 42.9543 65.9232 32.3559 65.9232ZM32.3558 61.2099C24.3606 61.2099 17.8792 54.7285 17.8792 46.7332C17.8792 38.738 24.3606 32.2566 32.3558 32.2566C40.3511 32.2566 46.8325 38.738 46.8325 46.7332C46.8325 54.7285 40.351 61.2099 32.3558 61.2099Z" fill="#979797"/>
<path d="M99.1245 12.6773L24.335 9.89294C23.899 14.0893 23.5104 18.0144 23.1729 21.7266L97.8186 24.685C98.0759 20.9416 98.7283 16.9582 99.1245 12.6773Z" fill="#353535"/>
<circle r="14.4766" transform="matrix(-1 -2.18557e-08 -2.18557e-08 1 32.3554 46.7332)" fill="#353535" fill-opacity="0.75"/>
<path d="M33.1125 50.2569H33.3125V50.0569V49.1269C33.3277 48.4629 33.7544 47.7544 34.6809 47.0036C35.6312 46.2337 36.296 45.5592 36.6563 44.9811L36.6575 44.9791C37.0171 44.387 37.2 43.766 37.2 43.1192C37.2 41.8589 36.6998 40.8197 35.7092 40.0165C34.7371 39.2005 33.4909 38.8 31.9878 38.8C30.7788 38.8 29.7121 39.1058 28.7954 39.723C27.8834 40.337 27.2216 41.1411 26.815 42.1328L26.7365 42.3242L26.9304 42.3962L29.0331 43.1767L29.2218 43.2467L29.2906 43.0576C29.5329 42.3922 29.8788 41.9086 30.3199 41.5904C30.7605 41.2726 31.3123 41.1079 31.9878 41.1079C32.7871 41.1079 33.3974 41.3021 33.8407 41.669L33.8407 41.669L33.8435 41.6712C34.2804 42.0199 34.5017 42.4948 34.5017 43.1192C34.5017 43.5385 34.3772 43.9075 34.1274 44.2333L34.1273 44.2333L34.1239 44.238C33.8798 44.5761 33.3846 45.0535 32.6197 45.674L32.6197 45.6739L32.6181 45.6753C31.8625 46.3015 31.3284 46.8608 31.0338 47.3525L31.0338 47.3525L31.0312 47.3571C30.7516 47.8529 30.6142 48.415 30.6142 49.0379V50.0569V50.2569H30.8142H33.1125ZM31.9633 55.2C32.4794 55.2 32.9207 55.0409 33.2715 54.7144C33.6354 54.3909 33.8259 53.9916 33.8259 53.5257C33.8259 53.0481 33.6373 52.6468 33.2697 52.3354C32.9191 52.01 32.4785 51.8515 31.9633 51.8515C31.4614 51.8515 31.023 52.0117 30.6589 52.3338C30.29 52.6454 30.1007 53.0473 30.1007 53.5257C30.1007 53.9924 30.2919 54.3923 30.657 54.716C31.0215 55.0392 31.4606 55.2 31.9633 55.2Z" fill="#979797" stroke="#979797" stroke-width="0.4"/>
<path d="M73.5047 7.40482C73.5742 7.33982 73.633 7.26653 73.6801 7.18484C74.2572 6.18535 72.8755 4.30727 70.5939 2.99003C68.3124 1.6728 65.9951 1.41521 65.418 2.4147C65.1042 2.95829 65.3697 3.76175 66.0443 4.59354L64.1934 7.38984C64.081 7.5597 63.9628 7.71976 63.8395 7.86703C62.2471 7.53745 60.9086 7.80531 60.3954 8.69431C59.681 9.93171 60.8081 11.952 62.9512 13.4529L60.6471 16.9339L60.8498 18.037L61.9715 17.752L64.2899 14.2493C66.746 15.4753 69.1974 15.4834 69.9366 14.203C70.4061 13.3898 70.0803 12.2385 69.1935 11.1188C69.2857 10.9729 69.386 10.8209 69.491 10.6624L71.4355 7.7246C72.0144 7.82136 72.5268 7.81757 72.9264 7.7081C73.1419 7.68727 73.3531 7.58149 73.5047 7.40482Z" fill="#6B6B6B" fill-opacity="0.98"/>
</svg>
