<svg width="151" height="86" viewBox="0 0 151 86" fill="none" xmlns="http://www.w3.org/2000/svg">
<path d="M79.5186 21.2871H147.019C148.675 21.2871 150.019 22.6303 150.019 24.2871V42.2871C150.019 43.944 148.675 45.2871 147.019 45.2871H79.5186V21.2871Z" fill="#D1D1D1"/>
<path d="M2.01855 24.2871C2.01855 22.6303 3.3617 21.2871 5.01855 21.2871H26.0186V45.2871H5.01855C3.3617 45.2871 2.01855 43.944 2.01855 42.2871V24.2871Z" fill="#D1D1D1"/>
<path d="M18.2744 31.5674L16.21 30.9521L16.5244 29.9199L18.5889 30.6855L18.5273 28.334H19.5732L19.5049 30.7197L21.5352 29.9678L21.8496 31.0068L19.751 31.6289L21.1045 33.4814L20.2568 34.124L18.9854 32.1553L17.7549 34.0762L16.9004 33.4541L18.2744 31.5674Z" fill="#6B6B6B"/>
<path d="M29.1548 50.6597L34.6193 56.1242L31.5482 61.7579C31.0907 62.5973 30.5151 63.3667 29.8391 64.0427L12.8922 80.9896C10.5188 83.363 6.67073 83.363 4.2973 80.9896V80.9896C1.92388 78.6162 1.92388 74.7681 4.2973 72.3947L21.2491 55.4429C21.9219 54.7701 22.6872 54.1968 23.5219 53.7403L29.1548 50.6597Z" fill="#6B6B6B"/>
<path fill-rule="evenodd" clip-rule="evenodd" d="M53.05 62.9274C35.6731 62.9274 21.5863 48.8406 21.5863 31.4637C21.5863 14.0868 35.6731 -1.06745e-06 53.05 -6.87661e-07C70.4269 -3.07876e-07 84.5137 14.0868 84.5137 31.4637C84.5137 48.8406 70.4269 62.9274 53.05 62.9274ZM53.0498 55.1993C39.9409 55.1993 29.3141 44.5724 29.3141 31.4635C29.3141 18.3546 39.9409 7.72777 53.0498 7.72777C66.1587 7.72777 76.7856 18.3546 76.7856 31.4635C76.7856 44.5724 66.1587 55.1993 53.0498 55.1993Z" fill="#979797"/>
<mask id="mask0" mask-type="alpha" maskUnits="userSpaceOnUse" x="29" y="7" width="48" height="49">
<circle r="23.7358" transform="matrix(-1 -2.18557e-08 -2.18557e-08 1 53.0494 31.4636)" fill="#C4C4C4"/>
</mask>
<g mask="url(#mask0)">
<rect x="2.01758" y="18.2871" width="148" height="30" rx="15" fill="#D1D1D1"/>
<path d="M19.0303 39.5V31.2471H17.5273V29.9902H19.0303V29.0146C19.0303 27.9951 19.3027 27.207 19.8477 26.6504C20.3926 26.0938 21.1631 25.8154 22.1592 25.8154C22.5342 25.8154 22.9062 25.8652 23.2754 25.9648L23.1875 27.2832C22.9121 27.2305 22.6191 27.2041 22.3086 27.2041C21.7812 27.2041 21.374 27.3594 21.0869 27.6699C20.7998 27.9746 20.6562 28.4141 20.6562 28.9883V29.9902H22.6865V31.2471H20.6562V39.5H19.0303ZM26.1582 30.8604L23.5039 30.0693L23.9082 28.7422L26.5625 29.7266L26.4834 26.7031H27.8281L27.7402 29.7705L30.3506 28.8037L30.7549 30.1396L28.0566 30.9395L29.7969 33.3213L28.707 34.1475L27.0723 31.6162L25.4902 34.0859L24.3916 33.2861L26.1582 30.8604ZM33.9102 30.8604L31.2559 30.0693L31.6602 28.7422L34.3145 29.7266L34.2354 26.7031H35.5801L35.4922 29.7705L38.1025 28.8037L38.5068 30.1396L35.8086 30.9395L37.5488 33.3213L36.459 34.1475L34.8242 31.6162L33.2422 34.0859L32.1436 33.2861L33.9102 30.8604ZM41.6621 30.8604L39.0078 30.0693L39.4121 28.7422L42.0664 29.7266L41.9873 26.7031H43.332L43.2441 29.7705L45.8545 28.8037L46.2588 30.1396L43.5605 30.9395L45.3008 33.3213L44.2109 34.1475L42.5762 31.6162L40.9941 34.0859L39.8955 33.2861L41.6621 30.8604ZM49.4141 30.8604L46.7598 30.0693L47.1641 28.7422L49.8184 29.7266L49.7393 26.7031H51.084L50.9961 29.7705L53.6064 28.8037L54.0107 30.1396L51.3125 30.9395L53.0527 33.3213L51.9629 34.1475L50.3281 31.6162L48.7461 34.0859L47.6475 33.2861L49.4141 30.8604ZM57.166 30.8604L54.5117 30.0693L54.916 28.7422L57.5703 29.7266L57.4912 26.7031H58.8359L58.748 29.7705L61.3584 28.8037L61.7627 30.1396L59.0645 30.9395L60.8047 33.3213L59.7148 34.1475L58.0801 31.6162L56.498 34.0859L55.3994 33.2861L57.166 30.8604Z" fill="#6B6B6B"/>
</g>
<path d="M29.3136 31.4635C29.3136 44.5725 39.9405 55.1993 53.0494 55.1993C66.1583 55.1993 76.7852 44.5725 76.7852 31.4636C76.7852 18.3546 66.1583 7.72778 53.0494 7.72778C39.9405 7.72778 29.3136 18.3546 29.3136 31.4635Z" fill="#C4C4C4" fill-opacity="0.2"/>
</svg>
