<svg width="100" height="24" viewBox="0 0 100 24" fill="none" xmlns="http://www.w3.org/2000/svg">
<path d="M19.0617 9.07722L19.0532 9.06956C18.4012 8.47134 17.8336 8.13811 17.3987 7.88278L17.3671 7.86419C17.1189 7.7184 16.9154 7.59825 16.6737 7.43431L16.6678 7.43034L16.6619 7.42636C16.462 7.29229 16.3188 7.18153 15.8837 6.8399L15.7769 6.75599L15.7569 6.7404C15.5018 6.54076 15.0834 6.2133 14.5453 5.732L14.5361 5.72382L14.5269 5.71575C13.9895 5.24368 13.338 4.61474 12.6605 3.821L12.6268 3.78156L12.5917 3.74339C12.0836 3.19179 11.7259 2.76348 11.4217 2.39889C11.3855 2.35555 11.3485 2.31075 11.3105 2.26476L11.3069 2.26036C10.7419 1.57626 9.95701 0.625934 8.45773 0.210349L8.45599 0.209868C5.99252 -0.471244 3.56488 0.607227 2.15007 1.98347C0.331064 3.74854 0.121457 5.97905 0.0479965 6.76078L0.0434981 6.80843C-0.235215 9.60894 0.876281 11.8338 1.92686 13.9368L1.99875 14.0807C2.44847 14.9856 3.05221 16.1827 4.09721 17.6112L4.19546 17.7454C5.04994 18.9122 6.07192 20.3077 7.27478 21.4345C8.55697 22.6356 10.2144 23.7 12.3742 23.946C15.0668 24.2589 18.937 23.2501 20.8847 19.8918C22.0023 17.9758 22.1 15.9257 21.7764 14.218C21.4573 12.534 20.7036 11.0141 19.8493 9.92209L19.8426 9.91358L19.8358 9.90508C19.6367 9.65466 19.4428 9.4489 19.3038 9.30924C19.2842 9.28949 19.2652 9.27067 19.2471 9.25287L19.2122 9.21876L19.1766 9.1844L19.1598 9.16839L19.1229 9.13357C19.099 9.11122 19.0784 9.09235 19.0617 9.07722Z" fill="#212121"/>
<path d="M67.9016 11.8536C67.9016 17.7859 63.2082 22.3359 57.4206 22.3359C51.6331 22.3359 46.9397 17.7859 46.9397 11.8536C46.9397 5.92135 51.6331 1.37134 57.4206 1.37134C63.2082 1.37134 67.9016 5.92135 67.9016 11.8536ZM51.5467 11.8536C51.5467 15.4533 54.1381 17.8435 57.4206 17.8435C60.7031 17.8435 63.2945 15.4533 63.2945 11.8536C63.2945 8.25395 60.7031 5.86375 57.4206 5.86375C54.1381 5.86375 51.5467 8.25395 51.5467 11.8536Z" fill="#212121"/>
<path d="M31.5361 1.7745H39.1665C43.14 1.7745 46.221 4.85584 46.221 8.68591C46.221 12.516 43.14 15.5973 39.1665 15.5973H36.1431V21.9328H31.5361V1.7745ZM36.1431 11.2777H39.1665C40.5774 11.2777 41.614 10.1546 41.614 8.68591C41.614 7.21724 40.5774 6.09413 39.1665 6.09413H36.1431V11.2777Z" fill="#212121"/>
<path d="M76.243 22.3359C80.6196 22.3359 83.7294 20.0321 83.7294 16.1445C83.7294 11.8824 80.3029 10.8169 77.2508 9.89541C74.1122 8.94509 73.6227 8.31154 73.6227 7.39002C73.6227 6.58369 74.3426 5.86375 75.7823 5.86375C77.6251 5.86375 78.5753 6.75648 79.2663 8.19635L83.1535 5.92135C81.685 2.9552 79.0936 1.37134 75.7823 1.37134C72.2982 1.37134 69.0157 3.61755 69.0157 7.50521C69.0157 11.3641 71.9527 12.804 74.9473 13.6391C77.9706 14.4742 79.1223 14.9638 79.1223 16.2021C79.1223 16.9796 78.5753 17.8435 76.3869 17.8435C74.1122 17.8435 72.8741 16.7204 72.1543 15.0502L68.1807 17.354C69.3037 20.3201 72.0103 22.3359 76.243 22.3359Z" fill="#212121"/>
<path d="M85.3153 1.7745H92.9456C96.9192 1.7745 100 4.85584 100 8.68591C100 12.516 96.9192 15.5973 92.9456 15.5973H89.9223V21.9328H85.3153V1.7745ZM89.9223 11.2777H92.9456C94.3565 11.2777 95.3931 10.1546 95.3931 8.68591C95.3931 7.21724 94.3565 6.09413 92.9456 6.09413H89.9223V11.2777Z" fill="#212121"/>
</svg>
